<svg width="34" height="34" viewBox="0 0 34 34" fill="none" xmlns="http://www.w3.org/2000/svg">
<path d="M26.9167 9.91665C24.5083 9.91665 22.3833 11.05 20.9667 13.0333L15.725 20.825C14.45 22.95 12.325 24.0833 9.91667 24.0833C5.95 24.0833 2.83333 20.9666 2.83333 17C2.83333 13.0333 5.95 9.91665 9.91667 9.91665C12.325 9.91665 14.45 11.05 15.8667 13.0333L16.7167 14.45L18.4167 11.9L18.1333 11.475C16.2917 8.78331 13.175 7.08331 9.91667 7.08331C4.39167 7.08331 0 11.475 0 17C0 22.525 4.39167 26.9166 9.91667 26.9166C13.175 26.9166 16.2917 25.2166 18.1333 22.525L20.1167 19.55L20.9667 20.9666C22.2417 22.95 24.5083 24.0833 26.9167 24.0833C30.8833 24.0833 34 20.9666 34 17C34 13.0333 30.8833 9.91665 26.9167 9.91665ZM26.9167 21.25C25.5 21.25 24.225 20.5416 23.375 19.4083L21.8167 17L23.375 14.7333C24.0833 13.4583 25.5 12.75 26.9167 12.75C29.325 12.75 31.1667 14.5916 31.1667 17C31.1667 19.4083 29.325 21.25 26.9167 21.25Z" fill="white"/>
</svg>
